<svg xmlns="http://www.w3.org/2000/svg" data-name="Layer 1" viewBox="0.03 0 438.62 170.65"><path d="M357.85 126.44v1h-2.76v7.23h-1.13v-7.23h-2.76v-1zm1 0h1.59l2.36 6.94 2.34-6.94h1.58v8.21h-1.06v-4.85-.83-1.24l-2.27 6.92h-1.1l-2.37-6.92V134.67h-1.06zM428.66 26.57c-27 4-53.15 10-75.94 24.26l-2.65 1.68c-9.69 6.09-19.3 12.36-28.1 18.84l6.29 3.76c28.2-22.18 59.77-37.43 94.93-42l.63.39c-2.1 2.32-5 2.93-7.32 4.61-31 21.32-81.39 45.36-72.38 91.8l2.51-10.47c9.83-40.15 54.38-66.07 88.47-86.11 2.09-.85 2.89-2.74 3.55-4.64-2.11-3.34-6.68-1.88-9.99-2.12zM275.52 50c-11.69 3.35-23.55-1.65-35.53-2.53l-47.23-.16c-.21 2.5 1 5 1.66 7.48 23.22-.82 43.93-1 65.43 3.18 9.44 2.29 19.92-4.82 29.07.21 2.12.83 3.35 3.33 5.47 4 1-1.89 2.72-4 3.15-6.28-4.85-7.55-14.05-7.55-22.02-5.9zM89.05 98.29c-2.51.43-5 1.06-7.57 1.45 1.71 6.53 4.87 12.8 10.51 17.38 3.75 1.69 9.64 3.13 13.22.64-7.82-3.76-13.03-11.9-16.16-19.47zM284.72 90.78c-6.88 4.19-16.89 2.51-24.61 1.47-4.85-1.89-9.61-3.78-14.43-5.87-1.71 5.25-3.61 10.67-7.33 14.44a7.73 7.73 0 0 1-7.54 1.88c-6.91-3.54-12.1-9.83-18.42-14.41-8.95 10.24-21.07 16.08-32.61 21.51 1.71 1.88 3.56 5.06 5.68 6.28 9.79-3.54 18.56-9.61 27.55-15.48 6.72 4 14 7.77 21.57 9.2 6.45-3.53 12.12-8.79 17.39-13.61 10.41 3.55 24.44 2.53 34-2.7zM116.26 88.06a16.57 16.57 0 0 0-7.56 1.7 31.44 31.44 0 0 0 10 16.71c3.59 2.29 9.44 3.14 13.2 1.29-8.15-4.43-12.14-11.76-15.64-19.7zM167.72 111.48c-.66-1.26-.24-2.72-1.31-3.72l-19.41-4a17.24 17.24 0 0 0 3.08 9c2.95 1 6.69.43 9.2 1.68 5.71 18.41 18 32.81 34.34 45.6 3.1 1.66 6.28 5 9.17 5-15.7-15.93-27.58-32.43-35.07-53.56zM59.78 107.13c-5.83 1.24-11.7 2.05-16.72 5.18-2.15 1.06-4.2 3.34-3 6.06 2.35 1.27 4.36-1.05 6.26-2.07 4.25-1.88 5.89 4.37 9.87 3.12a15.71 15.71 0 0 0 3.59-12.29z" fill="#001689"/><path d="M8.99 123.62c1.66-8 10-14 16.29-18.81 26.57-15.92 53.73-30.73 84.11-37.65-.66-2.1-2.12-4-3.13-6.09-30.32 9.22-59.43 21.55-86.13 39.12-8.59 7.12-19.46 14.67-20.1 26.14a8.1 8.1 0 0 0 3.36 6.28c12.3 5.64 28.19 2.49 40.94-.23-10-.61-21.3.45-30.94-2.71-2.15-1.47-4.61-3.12-4.4-6.05zM128.79 135.75c-6.48-3.77-9.21-13.4-18.15-11.11-16.13 4-32.43 7.74-49 10.68-3.52.43-7.69 1-10.42-1.46a5.1 5.1 0 0 0-.87 4.6c.65.43 1.29 1.46 2.1 1.65 12.57 1.49 27-1.22 40-3.76 6.23-1.42 12.34-3.13 18.81-4.19l48.91 33.06c8.14 5.25 18.6 5.83 29.09 5.25.83-.44 2.3 0 2.51-1.29-24.05-3.76-44.38-17.36-62.98-33.43z" fill="#001689"/><path d="M98.87 137.85c-7.31 4.15-12.74 11.9-19.61 15.68-3.19-1.9-2.12-5.87-3.8-8.57a1.43 1.43 0 0 0-1.64.83c-1.9 4.15-4.19 10-1.09 14.39a11.12 11.12 0 0 0 10.89 0c7.12-5.45 11.69-13.35 16.72-20.67v-1.66zM354.8 141.17c-11.29-1.46-21.93-7.73-27.37-17.75-9.66-18.61-22.16-43.52-47.92-43.3-1 1-.19 2.92-.8 4.17 15.49 1.07 27.82 15.68 34.91 27.19 5.22 13.61 16.7 27.63 32.38 30.12 3.58.4 6.07 1.65 9.38.83.46-.65-.39-.83-.58-1.26zM103.69 95c-1.29-4-5.65 0-8.57-.41 1.69 7.09 5 13.58 11.32 17.75 3.49 1.67 8.73 2.55 11.85.23-7.65-3.39-11.27-10.49-14.6-17.57zM177.18 20.22c-1.46-6.33-1.86-13.13-5.43-18.5-5.01-4.66-10.27 1.28-13.36 4.46-10.91 14.24-18.58 26.13-27.76 40.37-3.4 6.59-9.44 13.16-12.2 19.73 3.35-.41 6.74-.84 9.86-1.47 12.28-17.58 24.1-34.55 35.77-51.81a10 10 0 0 1 1.21-.77.8.8 0 0 1 .83 0c.65.38.84.6 1.24 1.87 3.16 10.12 3.16 21.68 4.65 32.51l7.73-6a91.08 91.08 0 0 0-2.54-20.39z" fill="#001689"/></svg>